<?xml version="1.0" encoding="UTF-8" standalone="no"?>
<!DOCTYPE svg PUBLIC "-//W3C//DTD SVG 1.1//EN"
 "http://www.w3.org/Graphics/SVG/1.1/DTD/svg11.dtd">
<!-- Generated by graphviz version 5.0.1 (20220820.1526)
 -->
<!-- Title: G Pages: 1 -->
<svg width="648pt" height="971pt"
 viewBox="0.00 0.00 648.42 971.00" xmlns="http://www.w3.org/2000/svg" xmlns:xlink="http://www.w3.org/1999/xlink">
<g id="graph0" class="graph" transform="scale(1 1) rotate(0) translate(4 967)">
<title>G</title><style>.edge>path:hover{stroke-width:8}</style>
<polygon fill="white" stroke="none" points="-4,4 -4,-967 644.42,-967 644.42,4 -4,4"/>
<g id="clust2" class="cluster">
<title>cluster_libcst</title><style>.edge>path:hover{stroke-width:8}</style>
<polygon fill="none" stroke="black" points="125.55,-667 125.55,-872 486.11,-872 486.11,-667 125.55,-667"/>
<text text-anchor="middle" x="305.83" y="-856.8" font-family="Times New Roman,serif" font-size="14.00">libcst</text>
</g>
<g id="clust3" class="cluster">
<title>cluster_mypy</title><style>.edge>path:hover{stroke-width:8}</style>
<polygon fill="none" stroke="black" points="254.48,-384 254.48,-567 362.32,-567 362.32,-384 254.48,-384"/>
<text text-anchor="middle" x="308.4" y="-551.8" font-family="Times New Roman,serif" font-size="14.00">mypy</text>
</g>
<g id="clust1" class="cluster">
<title>cluster_click</title><style>.edge>path:hover{stroke-width:8}</style>
<polygon fill="none" stroke="black" points="273.4,-880 273.4,-955 343.4,-955 343.4,-880 273.4,-880"/>
<text text-anchor="middle" x="308.4" y="-939.8" font-family="Times New Roman,serif" font-size="14.00">click</text>
</g>
<g id="clust4" class="cluster">
<title>cluster_packaging</title><style>.edge>path:hover{stroke-width:8}</style>
<polygon fill="none" stroke="black" points="122.02,-304 122.02,-439 228.53,-439 228.53,-304 122.02,-304"/>
<text text-anchor="middle" x="175.27" y="-423.8" font-family="Times New Roman,serif" font-size="14.00">packaging</text>
</g>
<g id="clust5" class="cluster">
<title>cluster_pythonminifier</title><style>.edge>path:hover{stroke-width:8}</style>
<polygon fill="none" stroke="black" points="119,-221 119,-296 231.54,-296 231.54,-221 119,-221"/>
<text text-anchor="middle" x="175.27" y="-280.8" font-family="Times New Roman,serif" font-size="14.00">pythonminifier</text>
</g>
<g id="clust6" class="cluster">
<title>cluster_requests</title><style>.edge>path:hover{stroke-width:8}</style>
<polygon fill="none" stroke="black" points="135.48,-138 135.48,-213 215.06,-213 215.06,-138 135.48,-138"/>
<text text-anchor="middle" x="175.27" y="-197.8" font-family="Times New Roman,serif" font-size="14.00">requests</text>
</g>
<g id="clust7" class="cluster">
<title>cluster_tomli</title><style>.edge>path:hover{stroke-width:8}</style>
<polygon fill="none" stroke="black" points="273.4,-141 273.4,-216 343.4,-216 343.4,-141 273.4,-141"/>
<text text-anchor="middle" x="308.4" y="-200.8" font-family="Times New Roman,serif" font-size="14.00">tomli</text>
</g>
<g id="clust8" class="cluster">
<title>cluster_typedconfig</title><style>.edge>path:hover{stroke-width:8}</style>
<polygon fill="none" stroke="black" points="261.55,-52 261.55,-133 632.42,-133 632.42,-52 261.55,-52"/>
<text text-anchor="middle" x="446.98" y="-117.8" font-family="Times New Roman,serif" font-size="14.00">typedconfig</text>
</g>
<!-- click -->
<g id="node1" class="node">
<title>click</title><style>.edge>path:hover{stroke-width:8}</style>
<ellipse fill="#f91010" stroke="black" cx="308.4" cy="-906" rx="27" ry="18"/>
<text text-anchor="middle" x="308.4" y="-903.5" font-family="Helvetica,sans-Serif" font-size="10.00" fill="#ffffff">click</text>
</g>
<!-- libcst -->
<g id="node2" class="node">
<title>libcst</title><style>.edge>path:hover{stroke-width:8}</style>
<ellipse fill="#efa106" stroke="black" cx="175.27" cy="-823" rx="27" ry="18"/>
<text text-anchor="middle" x="175.27" y="-820.5" font-family="Helvetica,sans-Serif" font-size="10.00" fill="#000000">libcst</text>
</g>
<!-- libcst_helpers -->
<g id="node5" class="node">
<title>libcst_helpers</title><style>.edge>path:hover{stroke-width:8}</style>
<ellipse fill="#c89123" stroke="black" cx="308.4" cy="-747" rx="43.62" ry="18"/>
<text text-anchor="middle" x="308.4" y="-744.5" font-family="Helvetica,sans-Serif" font-size="10.00" fill="#000000">libcst.helpers</text>
</g>
<!-- libcst&#45;&gt;libcst_helpers -->
<g id="edge6" class="edge">
<title>libcst&#45;&gt;libcst_helpers</title><style>.edge>path:hover{stroke-width:8}</style>
<path fill="none" stroke="black" d="M198.1,-813.07C208.39,-808.2 220.75,-802.09 231.54,-796 246.77,-787.4 263.13,-776.99 276.75,-767.98"/>
<polygon fill="#000000" stroke="black" points="278.89,-770.76 285.26,-762.3 275,-764.94 278.89,-770.76"/>
</g>
<!-- libcst_codemod -->
<g id="node3" class="node">
<title>libcst_codemod</title><style>.edge>path:hover{stroke-width:8}</style>
<ellipse fill="#e99f0c" stroke="black" cx="308.4" cy="-693" rx="48.72" ry="18"/>
<text text-anchor="middle" x="308.4" y="-690.5" font-family="Helvetica,sans-Serif" font-size="10.00" fill="#000000">libcst.codemod</text>
</g>
<!-- libcst_codemod_visitors -->
<g id="node4" class="node">
<title>libcst_codemod_visitors</title><style>.edge>path:hover{stroke-width:8}</style>
<ellipse fill="#b0893a" stroke="black" cx="175.27" cy="-758" rx="41.94" ry="28.98"/>
<text text-anchor="middle" x="175.27" y="-766.5" font-family="Helvetica,sans-Serif" font-size="10.00" fill="#000000">libcst.</text>
<text text-anchor="middle" x="175.27" y="-755.5" font-family="Helvetica,sans-Serif" font-size="10.00" fill="#000000">codemod.</text>
<text text-anchor="middle" x="175.27" y="-744.5" font-family="Helvetica,sans-Serif" font-size="10.00" fill="#000000">visitors</text>
</g>
<!-- libcst_helpers_module -->
<g id="node6" class="node">
<title>libcst_helpers_module</title><style>.edge>path:hover{stroke-width:8}</style>
<ellipse fill="#b88f3d" stroke="black" cx="442.05" cy="-747" rx="36.12" ry="28.98"/>
<text text-anchor="middle" x="442.05" y="-755.5" font-family="Helvetica,sans-Serif" font-size="10.00" fill="#000000">libcst.</text>
<text text-anchor="middle" x="442.05" y="-744.5" font-family="Helvetica,sans-Serif" font-size="10.00" fill="#000000">helpers.</text>
<text text-anchor="middle" x="442.05" y="-733.5" font-family="Helvetica,sans-Serif" font-size="10.00" fill="#000000">module</text>
</g>
<!-- libcst_helpers&#45;&gt;libcst_helpers_module -->
<g id="edge8" class="edge">
<title>libcst_helpers&#45;&gt;libcst_helpers_module</title><style>.edge>path:hover{stroke-width:8}</style>
<path fill="none" stroke="black" d="M352.14,-747C365.9,-747 381.2,-747 395.18,-747"/>
<polygon fill="#000000" stroke="black" points="395.56,-750.5 405.56,-747 395.56,-743.5 395.56,-750.5"/>
</g>
<!-- libcst_tool -->
<g id="node7" class="node">
<title>libcst_tool</title><style>.edge>path:hover{stroke-width:8}</style>
<ellipse fill="#ac8b49" stroke="black" cx="175.27" cy="-693" rx="34.96" ry="18"/>
<text text-anchor="middle" x="175.27" y="-690.5" font-family="Helvetica,sans-Serif" font-size="10.00" fill="#000000">libcst.tool</text>
</g>
<!-- libcst_tool&#45;&gt;libcst_codemod -->
<g id="edge3" class="edge">
<title>libcst_tool&#45;&gt;libcst_codemod</title><style>.edge>path:hover{stroke-width:8}</style>
<path fill="none" stroke="black" d="M210.04,-693C222.01,-693 235.85,-693 249.27,-693"/>
<polygon fill="#000000" stroke="black" points="249.41,-696.5 259.41,-693 249.41,-689.5 249.41,-696.5"/>
</g>
<!-- mypy -->
<g id="node8" class="node">
<title>mypy</title><style>.edge>path:hover{stroke-width:8}</style>
<ellipse fill="#95b653" stroke="black" cx="308.4" cy="-518" rx="27" ry="18"/>
<text text-anchor="middle" x="308.4" y="-515.5" font-family="Helvetica,sans-Serif" font-size="10.00" fill="#000000">mypy</text>
</g>
<!-- mypy_errors -->
<g id="node9" class="node">
<title>mypy_errors</title><style>.edge>path:hover{stroke-width:8}</style>
<ellipse fill="#95b653" stroke="black" cx="308.4" cy="-464" rx="40.06" ry="18"/>
<text text-anchor="middle" x="308.4" y="-461.5" font-family="Helvetica,sans-Serif" font-size="10.00" fill="#000000">mypy.errors</text>
</g>
<!-- mypy_stubgen -->
<g id="node10" class="node">
<title>mypy_stubgen</title><style>.edge>path:hover{stroke-width:8}</style>
<ellipse fill="#95b653" stroke="black" cx="308.4" cy="-410" rx="45.83" ry="18"/>
<text text-anchor="middle" x="308.4" y="-407.5" font-family="Helvetica,sans-Serif" font-size="10.00" fill="#000000">mypy.stubgen</text>
</g>
<!-- packaging -->
<g id="node11" class="node">
<title>packaging</title><style>.edge>path:hover{stroke-width:8}</style>
<ellipse fill="#53b653" stroke="black" cx="175.27" cy="-390" rx="35.82" ry="18"/>
<text text-anchor="middle" x="175.27" y="-387.5" font-family="Helvetica,sans-Serif" font-size="10.00" fill="#000000">packaging</text>
</g>
<!-- packaging_version -->
<g id="node12" class="node">
<title>packaging_version</title><style>.edge>path:hover{stroke-width:8}</style>
<ellipse fill="#53b653" stroke="black" cx="175.27" cy="-333" rx="45.01" ry="21.43"/>
<text text-anchor="middle" x="175.27" y="-336" font-family="Helvetica,sans-Serif" font-size="10.00" fill="#000000">packaging.</text>
<text text-anchor="middle" x="175.27" y="-325" font-family="Helvetica,sans-Serif" font-size="10.00" fill="#000000">version</text>
</g>
<!-- python_minifier -->
<g id="node13" class="node">
<title>python_minifier</title><style>.edge>path:hover{stroke-width:8}</style>
<ellipse fill="#40c095" stroke="black" cx="175.27" cy="-247" rx="48.04" ry="18"/>
<text text-anchor="middle" x="175.27" y="-244.5" font-family="Helvetica,sans-Serif" font-size="10.00" fill="#000000">python_minifier</text>
</g>
<!-- requests -->
<g id="node14" class="node">
<title>requests</title><style>.edge>path:hover{stroke-width:8}</style>
<ellipse fill="#4095c0" stroke="black" cx="175.27" cy="-164" rx="31.58" ry="18"/>
<text text-anchor="middle" x="175.27" y="-161.5" font-family="Helvetica,sans-Serif" font-size="10.00" fill="#000000">requests</text>
</g>
<!-- tomli -->
<g id="node15" class="node">
<title>tomli</title><style>.edge>path:hover{stroke-width:8}</style>
<ellipse fill="#9553b6" stroke="black" cx="308.4" cy="-167" rx="27" ry="18"/>
<text text-anchor="middle" x="308.4" y="-164.5" font-family="Helvetica,sans-Serif" font-size="10.00" fill="#ffffff">tomli</text>
</g>
<!-- typedconfig -->
<g id="node16" class="node">
<title>typedconfig</title><style>.edge>path:hover{stroke-width:8}</style>
<ellipse fill="#c04095" stroke="black" cx="308.4" cy="-84" rx="38.7" ry="18"/>
<text text-anchor="middle" x="308.4" y="-81.5" font-family="Helvetica,sans-Serif" font-size="10.00" fill="#ffffff">typedconfig</text>
</g>
<!-- typedconfig_config -->
<g id="node17" class="node">
<title>typedconfig_config</title><style>.edge>path:hover{stroke-width:8}</style>
<ellipse fill="#b83d8f" stroke="black" cx="442.05" cy="-81" rx="48.58" ry="21.43"/>
<text text-anchor="middle" x="442.05" y="-84" font-family="Helvetica,sans-Serif" font-size="10.00" fill="#ffffff">typedconfig.</text>
<text text-anchor="middle" x="442.05" y="-73" font-family="Helvetica,sans-Serif" font-size="10.00" fill="#ffffff">config</text>
</g>
<!-- typedconfig&#45;&gt;typedconfig_config -->
<g id="edge21" class="edge">
<title>typedconfig&#45;&gt;typedconfig_config</title><style>.edge>path:hover{stroke-width:8}</style>
<path fill="none" stroke="black" d="M347.48,-83.13C358.63,-82.88 371.09,-82.59 383.18,-82.32"/>
<polygon fill="#000000" stroke="black" points="383.29,-85.82 393.21,-82.09 383.14,-78.82 383.29,-85.82"/>
</g>
<!-- typedconfig_source -->
<g id="node18" class="node">
<title>typedconfig_source</title><style>.edge>path:hover{stroke-width:8}</style>
<ellipse fill="#c24799" stroke="black" cx="575.63" cy="-81" rx="48.58" ry="21.43"/>
<text text-anchor="middle" x="575.63" y="-84" font-family="Helvetica,sans-Serif" font-size="10.00" fill="#ffffff">typedconfig.</text>
<text text-anchor="middle" x="575.63" y="-73" font-family="Helvetica,sans-Serif" font-size="10.00" fill="#ffffff">source</text>
</g>
<!-- typedconfig_config&#45;&gt;typedconfig_source -->
<g id="edge23" class="edge">
<title>typedconfig_config&#45;&gt;typedconfig_source</title><style>.edge>path:hover{stroke-width:8}</style>
<path fill="none" stroke="black" d="M490.93,-81C499.18,-81 507.84,-81 516.33,-81"/>
<polygon fill="#000000" stroke="black" points="516.57,-84.5 526.57,-81 516.57,-77.5 516.57,-84.5"/>
</g>
<!-- stubber -->
<g id="node19" class="node">
<title>stubber</title><style>.edge>path:hover{stroke-width:8}</style>
<polygon fill="#0505e5" stroke="black" points="54,-494 51,-498 30,-498 27,-494 0,-494 0,-458 54,-458 54,-494"/>
<text text-anchor="middle" x="27" y="-473.5" font-family="Helvetica,sans-Serif" font-size="10.00" fill="#ffffff">stubber</text>
</g>
<!-- stubber&#45;&gt;click -->
<g id="edge1" class="edge">
<title>stubber&#45;&gt;click</title><style>.edge>path:hover{stroke-width:8}</style>
<path fill="none" stroke="black" d="M29.44,-494.4C35.41,-565.86 60.73,-823.64 119,-876 160.79,-913.55 229.91,-914.51 271.8,-910.88"/>
<polygon fill="#0505e5" stroke="black" points="266.78,-918.16 273.4,-909.88 263.07,-912.23 266.78,-918.16"/>
</g>
<!-- stubber&#45;&gt;libcst -->
<g id="edge2" class="edge">
<title>stubber&#45;&gt;libcst</title><style>.edge>path:hover{stroke-width:8}</style>
<path fill="none" stroke="black" d="M28.17,-494.31C29.58,-545.99 40.1,-695.24 118.99,-794.48"/>
<polygon fill="#0505e5" stroke="black" points="116.49,-796.95 125.55,-802.43 121.89,-792.49 116.49,-796.95"/>
</g>
<!-- stubber&#45;&gt;libcst_codemod -->
<g id="edge4" class="edge">
<title>stubber&#45;&gt;libcst_codemod</title><style>.edge>path:hover{stroke-width:8}</style>
<path fill="none" stroke="black" d="M33.72,-494.13C42.23,-518.23 60.46,-560.6 90,-585 141.22,-627.3 173.19,-601.27 231.54,-633 245.39,-640.53 259.28,-650.61 271.32,-660.35"/>
<polygon fill="#0505e5" stroke="black" points="269.41,-663.31 279.34,-667 273.88,-657.92 269.41,-663.31"/>
</g>
<!-- stubber&#45;&gt;libcst_codemod_visitors -->
<g id="edge5" class="edge">
<title>stubber&#45;&gt;libcst_codemod_visitors</title><style>.edge>path:hover{stroke-width:8}</style>
<path fill="none" stroke="black" d="M29.83,-494.25C35.04,-537.26 53.63,-646.4 118.68,-718.89"/>
<polygon fill="#0505e5" stroke="black" points="116.16,-721.32 125.55,-726.23 121.27,-716.53 116.16,-721.32"/>
</g>
<!-- stubber&#45;&gt;libcst_helpers -->
<g id="edge7" class="edge">
<title>stubber&#45;&gt;libcst_helpers</title><style>.edge>path:hover{stroke-width:8}</style>
<path fill="none" stroke="black" d="M35.48,-494.31C45.97,-519.06 66.45,-564.12 90,-599 100.93,-615.18 102.58,-621.44 119,-632 160.03,-658.39 188.64,-634.73 224.79,-660.68"/>
<polygon fill="#0505e5" stroke="black" points="222.64,-663.44 232.62,-667 227.04,-658 222.64,-663.44"/>
</g>
<!-- stubber&#45;&gt;libcst_helpers_module -->
<g id="edge9" class="edge">
<title>stubber&#45;&gt;libcst_helpers_module</title><style>.edge>path:hover{stroke-width:8}</style>
<path fill="none" stroke="black" d="M54.27,-487.77C111.29,-513.97 249.69,-581.01 355.41,-660.75"/>
<polygon fill="#0505e5" stroke="black" points="353.53,-663.72 363.6,-667 357.78,-658.15 353.53,-663.72"/>
</g>
<!-- stubber&#45;&gt;libcst_tool -->
<g id="edge10" class="edge">
<title>stubber&#45;&gt;libcst_tool</title><style>.edge>path:hover{stroke-width:8}</style>
<path fill="none" stroke="black" d="M29.06,-494.11C32.15,-530.54 44.11,-613.26 90,-661 97.27,-668.56 106.51,-674.36 116.19,-678.79"/>
<polygon fill="#0505e5" stroke="black" points="114.97,-682.08 125.55,-682.64 117.63,-675.6 114.97,-682.08"/>
</g>
<!-- stubber&#45;&gt;mypy -->
<g id="edge11" class="edge">
<title>stubber&#45;&gt;mypy</title><style>.edge>path:hover{stroke-width:8}</style>
<path fill="none" stroke="black" d="M54.16,-481.93C65.19,-484.32 78.18,-486.98 90,-489 141.76,-497.87 200.84,-505.6 244.34,-510.84"/>
<polygon fill="#0505e5" stroke="black" points="244.14,-514.34 254.49,-512.05 244.97,-507.39 244.14,-514.34"/>
</g>
<!-- stubber&#45;&gt;mypy_errors -->
<g id="edge12" class="edge">
<title>stubber&#45;&gt;mypy_errors</title><style>.edge>path:hover{stroke-width:8}</style>
<path fill="none" stroke="black" d="M54.05,-475.92C92.78,-475.68 167.85,-474.72 231.54,-471 235.72,-470.76 240.02,-470.47 244.36,-470.14"/>
<polygon fill="#0505e5" stroke="black" points="244.79,-473.62 254.49,-469.34 244.24,-466.64 244.79,-473.62"/>
</g>
<!-- stubber&#45;&gt;mypy_stubgen -->
<g id="edge13" class="edge">
<title>stubber&#45;&gt;mypy_stubgen</title><style>.edge>path:hover{stroke-width:8}</style>
<path fill="none" stroke="black" d="M54.17,-473.86C93.36,-470.19 169.37,-461.25 231.54,-443 235.91,-441.72 240.36,-440.25 244.8,-438.65"/>
<polygon fill="#0505e5" stroke="black" points="246.37,-441.81 254.48,-435 243.89,-435.26 246.37,-441.81"/>
</g>
<!-- stubber&#45;&gt;packaging -->
<g id="edge14" class="edge">
<title>stubber&#45;&gt;packaging</title><style>.edge>path:hover{stroke-width:8}</style>
<path fill="none" stroke="black" d="M54.15,-460.62C70.62,-450.94 92.61,-438.01 113.27,-425.87"/>
<polygon fill="#0505e5" stroke="black" points="115.17,-428.81 122.02,-420.72 111.62,-422.77 115.17,-428.81"/>
</g>
<!-- stubber&#45;&gt;packaging_version -->
<g id="edge15" class="edge">
<title>stubber&#45;&gt;packaging_version</title><style>.edge>path:hover{stroke-width:8}</style>
<path fill="none" stroke="black" d="M39.4,-457.7C53.95,-435.36 80.99,-397.11 114.34,-367.21"/>
<polygon fill="#0505e5" stroke="black" points="116.74,-369.77 122.02,-360.58 112.16,-364.47 116.74,-369.77"/>
</g>
<!-- stubber&#45;&gt;python_minifier -->
<g id="edge16" class="edge">
<title>stubber&#45;&gt;python_minifier</title><style>.edge>path:hover{stroke-width:8}</style>
<path fill="none" stroke="black" d="M35.01,-457.9C47.72,-426.32 76.66,-359.57 115.97,-304.4"/>
<polygon fill="#0505e5" stroke="black" points="119.03,-306.14 122.1,-296 113.38,-302.01 119.03,-306.14"/>
</g>
<!-- stubber&#45;&gt;requests -->
<g id="edge17" class="edge">
<title>stubber&#45;&gt;requests</title><style>.edge>path:hover{stroke-width:8}</style>
<path fill="none" stroke="black" d="M31.35,-457.75C40.09,-413.54 66.62,-298.34 119,-217 121.82,-212.62 125.07,-208.34 128.55,-204.24"/>
<polygon fill="#0505e5" stroke="black" points="131.37,-206.33 135.48,-196.57 126.18,-201.64 131.37,-206.33"/>
</g>
<!-- stubber&#45;&gt;tomli -->
<g id="edge18" class="edge">
<title>stubber&#45;&gt;tomli</title><style>.edge>path:hover{stroke-width:8}</style>
<path fill="none" stroke="black" d="M29.96,-457.88C37.38,-393.12 66.03,-174.72 119,-134 160.73,-101.92 223,-122.22 264.39,-142.33"/>
<polygon fill="#0505e5" stroke="black" points="262.9,-145.49 273.4,-146.86 266.04,-139.24 262.9,-145.49"/>
</g>
<!-- stubber&#45;&gt;typedconfig -->
<g id="edge19" class="edge">
<title>stubber&#45;&gt;typedconfig</title><style>.edge>path:hover{stroke-width:8}</style>
<path fill="none" stroke="black" d="M29.59,-457.61C35.9,-389.69 61.64,-154.81 119,-113 159.92,-83.17 219.24,-78.64 260.34,-79.82"/>
<polygon fill="#0505e5" stroke="black" points="250.95,-80.31 261.55,-80.23 253.22,-73.69 250.95,-80.31"/>
</g>
<!-- stubber&#45;&gt;typedconfig_config -->
<g id="edge20" class="edge">
<title>stubber&#45;&gt;typedconfig_config</title><style>.edge>path:hover{stroke-width:8}</style>
<path fill="none" stroke="black" d="M29.2,-457.86C34.37,-386.21 57.26,-124.51 119,-76 181.29,-27.06 273.27,-33.81 343,-49.61"/>
<polygon fill="#0505e5" stroke="black" points="342.58,-53.11 353.12,-52 344.19,-46.3 342.58,-53.11"/>
</g>
<!-- stubber&#45;&gt;typedconfig_source -->
<g id="edge22" class="edge">
<title>stubber&#45;&gt;typedconfig_source</title><style>.edge>path:hover{stroke-width:8}</style>
<path fill="none" stroke="black" d="M29.5,-458C36.04,-383.66 64.14,-101.35 119,-34 137.21,-11.64 145.43,0 174.27,0 174.27,0 174.27,0 309.4,0 378.68,0 453.87,-25.59 506.44,-48"/>
<polygon fill="#0505e5" stroke="black" points="505.1,-51.23 515.66,-52 507.88,-44.81 505.1,-51.23"/>
</g>
</g>
</svg>
